<?xml version="1.0" standalone="no"?>
<!DOCTYPE svg PUBLIC "-//W3C//DTD SVG 20010904//EN"
 "http://www.w3.org/TR/2001/REC-SVG-20010904/DTD/svg10.dtd">
<svg version="1.0" xmlns="http://www.w3.org/2000/svg"
 width="800.000000pt" height="800.000000pt" viewBox="0 0 800.000000 800.000000"
 preserveAspectRatio="xMidYMid meet">
<metadata>
Created by potrace 1.14, written by Peter Selinger 2001-2017
</metadata>
<g transform="translate(0.000000,800.000000) scale(0.100000,-0.100000)"
fill="#000000" stroke="none">
<path d="M3865 5589 c-181 -14 -416 -79 -578 -161 -375 -188 -674 -532 -806
-926 -62 -185 -75 -275 -75 -507 0 -235 14 -324 78 -512 118 -348 362 -655
676 -850 450 -280 1034 -314 1515 -88 394 184 696 520 839 934 66 190 80 279
80 516 0 179 -3 225 -22 312 -66 306 -205 571 -411 785 -236 247 -503 397
-830 468 -80 18 -304 42 -351 38 -8 0 -60 -4 -115 -9z"/>
</g>
</svg>
